# xmcd
#
# Track frame offsets:
#	150
#	78022
#	89882
#	109296
#	158896
#
# Disc length: 2371 seconds
#
# Revision: 0
# Processed by: cddbd v1.4PL0 Copyright (c) Steve Scherf et al.
# Submitted via: EasyCDDAExtractor 4.5.0.2
#
DISCID=37094105
DTITLE=The Moody Blues - Seventh Sojourn
DYEAR=1992
DGENRE=Blues
TTITLE0=Lost In A Lost World
TTITLE1=New Horizons
TTITLE2=For My Lady
TTITLE3=Isn't Life Strange
TTITLE4=You And Me
EXTD=
EXTT0=
EXTT1=
EXTT2=
EXTT3=
EXTT4=
PLAYORDER=
